<svg width="18" height="18" viewBox="0 0 19 11" fill="none" xmlns="http://www.w3.org/2000/svg">
<path d="M4.878 8.128C5.142 8.128 5.394 8.122 5.634 8.11C5.874 8.098 6.066 8.08 6.21 8.056V6.022C6.102 5.998 5.94 5.974 5.724 5.95C5.508 5.926 5.31 5.914 5.13 5.914C4.878 5.914 4.638 5.932 4.41 5.968C4.194 5.992 4.002 6.046 3.834 6.13C3.666 6.214 3.534 6.328 3.438 6.472C3.342 6.616 3.294 6.796 3.294 7.012C3.294 7.432 3.432 7.726 3.708 7.894C3.996 8.05 4.386 8.128 4.878 8.128ZM4.662 0.28C5.454 0.28 6.114 0.37 6.642 0.549999C7.17 0.729999 7.59 0.987999 7.902 1.324C8.226 1.66 8.454 2.068 8.586 2.548C8.718 3.028 8.784 3.562 8.784 4.15V9.73C8.4 9.814 7.866 9.91 7.182 10.018C6.498 10.138 5.67 10.198 4.698 10.198C4.086 10.198 3.528 10.144 3.024 10.036C2.532 9.928 2.106 9.754 1.746 9.514C1.386 9.262 1.11 8.938 0.918 8.542C0.726 8.146 0.63 7.66 0.63 7.084C0.63 6.532 0.738 6.064 0.954 5.68C1.182 5.296 1.482 4.99 1.854 4.762C2.226 4.534 2.652 4.372 3.132 4.276C3.612 4.168 4.11 4.114 4.626 4.114C4.974 4.114 5.28 4.132 5.544 4.168C5.82 4.192 6.042 4.228 6.21 4.276V4.024C6.21 3.568 6.072 3.202 5.796 2.926C5.52 2.65 5.04 2.512 4.356 2.512C3.9 2.512 3.45 2.548 3.006 2.62C2.562 2.68 2.178 2.77 1.854 2.89L1.512 0.729999C1.668 0.681999 1.86 0.633999 2.088 0.586C2.328 0.526 2.586 0.478 2.862 0.442C3.138 0.394 3.426 0.358 3.726 0.334C4.038 0.298 4.35 0.28 4.662 0.28ZM14.8272 8.128C15.0912 8.128 15.3432 8.122 15.5832 8.11C15.8232 8.098 16.0152 8.08 16.1592 8.056V6.022C16.0512 5.998 15.8892 5.974 15.6732 5.95C15.4572 5.926 15.2592 5.914 15.0792 5.914C14.8272 5.914 14.5872 5.932 14.3592 5.968C14.1432 5.992 13.9512 6.046 13.7832 6.13C13.6152 6.214 13.4832 6.328 13.3872 6.472C13.2912 6.616 13.2432 6.796 13.2432 7.012C13.2432 7.432 13.3812 7.726 13.6572 7.894C13.9452 8.05 14.3352 8.128 14.8272 8.128ZM14.6112 0.28C15.4032 0.28 16.0632 0.37 16.5912 0.549999C17.1192 0.729999 17.5392 0.987999 17.8512 1.324C18.1752 1.66 18.4032 2.068 18.5352 2.548C18.6672 3.028 18.7332 3.562 18.7332 4.15V9.73C18.3492 9.814 17.8152 9.91 17.1312 10.018C16.4472 10.138 15.6192 10.198 14.6472 10.198C14.0352 10.198 13.4772 10.144 12.9732 10.036C12.4812 9.928 12.0552 9.754 11.6952 9.514C11.3352 9.262 11.0592 8.938 10.8672 8.542C10.6752 8.146 10.5792 7.66 10.5792 7.084C10.5792 6.532 10.6872 6.064 10.9032 5.68C11.1312 5.296 11.4312 4.99 11.8032 4.762C12.1752 4.534 12.6012 4.372 13.0812 4.276C13.5612 4.168 14.0592 4.114 14.5752 4.114C14.9232 4.114 15.2292 4.132 15.4932 4.168C15.7692 4.192 15.9912 4.228 16.1592 4.276V4.024C16.1592 3.568 16.0212 3.202 15.7452 2.926C15.4692 2.65 14.9892 2.512 14.3052 2.512C13.8492 2.512 13.3992 2.548 12.9552 2.62C12.5112 2.68 12.1272 2.77 11.8032 2.89L11.4612 0.729999C11.6172 0.681999 11.8092 0.633999 12.0372 0.586C12.2772 0.526 12.5352 0.478 12.8112 0.442C13.0872 0.394 13.3752 0.358 13.6752 0.334C13.9872 0.298 14.2992 0.28 14.6112 0.28Z" fill="#151F46"/>
</svg>
