<svg width="18" height="18" viewBox="0 0 17 16" fill="none" xmlns="http://www.w3.org/2000/svg">
<path d="M4.41667 7.58337C3.92421 7.58337 3.43658 7.48638 2.98161 7.29792C2.52664 7.10947 2.11324 6.83324 1.76502 6.48502C1.4168 6.1368 1.14058 5.72341 0.952123 5.26844C0.763668 4.81347 0.666672 4.32583 0.666672 3.83337C0.666672 3.34092 0.763668 2.85328 0.952123 2.39831C1.14058 1.94334 1.4168 1.52994 1.76502 1.18172C2.11324 0.833504 2.52664 0.557281 2.98161 0.368826C3.43658 0.180371 3.92421 0.083374 4.41667 0.083374C5.41123 0.083374 6.36506 0.478462 7.06832 1.18172C7.77158 1.88498 8.16667 2.83881 8.16667 3.83337C8.16667 4.82794 7.77158 5.78176 7.06832 6.48502C6.36506 7.18829 5.41123 7.58337 4.41667 7.58337ZM4.83334 15.9167C3.83878 15.9167 2.88495 15.5216 2.18169 14.8184C1.47843 14.1151 1.08334 13.1613 1.08334 12.1667C1.08334 11.1721 1.47843 10.2183 2.18169 9.51506C2.88495 8.8118 3.83878 8.41671 4.83334 8.41671C5.8279 8.41671 6.78173 8.8118 7.48499 9.51506C8.18825 10.2183 8.58334 11.1721 8.58334 12.1667C8.58334 13.1613 8.18825 14.1151 7.48499 14.8184C6.78173 15.5216 5.8279 15.9167 4.83334 15.9167ZM13.1667 7.58337C12.6742 7.58337 12.1866 7.48638 11.7316 7.29792C11.2766 7.10947 10.8632 6.83324 10.515 6.48502C10.1668 6.1368 9.89058 5.72341 9.70212 5.26844C9.51367 4.81347 9.41667 4.32583 9.41667 3.83337C9.41667 3.34092 9.51367 2.85328 9.70212 2.39831C9.89058 1.94334 10.1668 1.52994 10.515 1.18172C10.8632 0.833504 11.2766 0.557281 11.7316 0.368826C12.1866 0.180371 12.6742 0.083374 13.1667 0.083374C14.1612 0.083374 15.1151 0.478462 15.8183 1.18172C16.5216 1.88498 16.9167 2.83881 16.9167 3.83337C16.9167 4.82794 16.5216 5.78176 15.8183 6.48502C15.1151 7.18829 14.1612 7.58337 13.1667 7.58337ZM13.1667 15.9167C12.1721 15.9167 11.2183 15.5216 10.515 14.8184C9.81176 14.1151 9.41667 13.1613 9.41667 12.1667C9.41667 11.1721 9.81176 10.2183 10.515 9.51506C11.2183 8.8118 12.1721 8.41671 13.1667 8.41671C14.1612 8.41671 15.1151 8.8118 15.8183 9.51506C16.5216 10.2183 16.9167 11.1721 16.9167 12.1667C16.9167 13.1613 16.5216 14.1151 15.8183 14.8184C15.1151 15.5216 14.1612 15.9167 13.1667 15.9167ZM4.41667 5.91671C4.96921 5.91671 5.49911 5.69721 5.88981 5.30651C6.28051 4.91581 6.5 4.38591 6.5 3.83337C6.5 3.28084 6.28051 2.75094 5.88981 2.36023C5.49911 1.96953 4.96921 1.75004 4.41667 1.75004C3.86414 1.75004 3.33423 1.96953 2.94353 2.36023C2.55283 2.75094 2.33334 3.28084 2.33334 3.83337C2.33334 4.38591 2.55283 4.91581 2.94353 5.30651C3.33423 5.69721 3.86414 5.91671 4.41667 5.91671ZM4.83334 14.25C5.38587 14.25 5.91578 14.0305 6.30648 13.6398C6.69718 13.2491 6.91667 12.7192 6.91667 12.1667C6.91667 11.6142 6.69718 11.0843 6.30648 10.6936C5.91578 10.3029 5.38587 10.0834 4.83334 10.0834C4.2808 10.0834 3.7509 10.3029 3.3602 10.6936C2.9695 11.0843 2.75001 11.6142 2.75001 12.1667C2.75001 12.7192 2.9695 13.2491 3.3602 13.6398C3.7509 14.0305 4.2808 14.25 4.83334 14.25ZM13.1667 5.91671C13.7192 5.91671 14.2491 5.69721 14.6398 5.30651C15.0305 4.91581 15.25 4.38591 15.25 3.83337C15.25 3.28084 15.0305 2.75094 14.6398 2.36023C14.2491 1.96953 13.7192 1.75004 13.1667 1.75004C12.6141 1.75004 12.0842 1.96953 11.6935 2.36023C11.3028 2.75094 11.0833 3.28084 11.0833 3.83337C11.0833 4.38591 11.3028 4.91581 11.6935 5.30651C12.0842 5.69721 12.6141 5.91671 13.1667 5.91671ZM13.1667 14.25C13.7192 14.25 14.2491 14.0305 14.6398 13.6398C15.0305 13.2491 15.25 12.7192 15.25 12.1667C15.25 11.6142 15.0305 11.0843 14.6398 10.6936C14.2491 10.3029 13.7192 10.0834 13.1667 10.0834C12.6141 10.0834 12.0842 10.3029 11.6935 10.6936C11.3028 11.0843 11.0833 11.6142 11.0833 12.1667C11.0833 12.7192 11.3028 13.2491 11.6935 13.6398C12.0842 14.0305 12.6141 14.25 13.1667 14.25Z" fill="#AEB7C2"/>
</svg>
